<svg width="688" height="648" xmlns="http://www.w3.org/2000/svg">
 <defs>
  <clipPath id="clip0">
   <rect id="svg_1" fill="white" height="688" width="688" y="-40"/>
  </clipPath>
  <linearGradient y2="1" x2="0.5" y1="0" x1="0.5" id="paint0_linear">
   <stop stop-color="#121214"/>
   <stop stop-opacity="0" stop-color="#121214" offset="1"/>
  </linearGradient>
 </defs>
 <g>
  <title>background</title>
  <rect fill="#353535" id="canvas_background" height="650" width="690" y="-1" x="-1"/>
 </g>
 <g>
  <title>Layer 1</title>
  <g id="svg_2" opacity="0.05">
   <g id="svg_3" clip-path="url(#clip0)">
    <path id="svg_4" fill="url(#paint0_linear)" d="m344,-25.6667c-190.06,0 -344,151.3597 -344,338.0377c0,149.382 98.556,276.059 235.21,320.722c17.2,3.182 23.507,-7.281 23.507,-16.254c0,-8.027 -0.287,-29.297 -0.43,-57.476c-95.69,20.382 -115.871,-45.351 -115.871,-45.351c-15.652,-39.015 -38.27,-49.45 -38.27,-49.45c-31.1607,-20.955 2.408,-20.525 2.408,-20.525c34.543,2.35 52.689,34.83 52.689,34.83c30.674,51.686 80.525,36.75 100.19,28.122c3.096,-21.873 11.954,-36.751 21.787,-45.208c-76.397,-8.456 -156.692,-37.524 -156.692,-167.04c0,-36.894 13.33,-67.052 35.403,-90.702c-3.87,-8.542 -15.48,-42.914 3.01,-89.468c0,0 28.81,-9.059 94.6,34.658c27.52,-7.511 56.76,-11.238 86,-11.41c29.24,0.172 58.48,3.899 86,11.41c65.36,-43.717 94.17,-34.658 94.17,-34.658c18.49,46.554 6.88,80.926 3.44,89.468c21.93,23.65 35.26,53.808 35.26,90.702c0,129.86 -80.41,158.44 -156.95,166.754c12.04,10.148 23.22,30.874 23.22,62.55c0,45.236 -0.43,81.586 -0.43,92.565c0,8.858 6.02,19.436 23.65,16.053c137.629,-44.376 236.099,-171.14 236.099,-320.292c0,-186.678 -154.026,-338.0377 -344,-338.0377z"/>
   </g>
  </g>
 </g>
</svg>