<svg width="215" height="32" xmlns="http://www.w3.org/2000/svg">

 <g>
  <title>background</title>
  <rect fill="#353535" id="canvas_background" height="34" width="217" y="-1" x="-1"/>
 </g>
 <g>
  <title>Layer 1</title>
  <path id="svg_1" fill="#737380" d="m48.9609,17.5664c0,-1.9687 0.461,-3.5391 1.3829,-4.7109c0.9296,-1.1797 2.1601,-1.7696 3.6914,-1.7696c1.4453,0 2.582,0.5039 3.4101,1.5118l0.1289,-1.2774l2.5664,0l0,12.293c0,1.664 -0.5195,2.9765 -1.5586,3.9375c-1.0312,0.9609 -2.4258,1.4414 -4.1836,1.4414c-0.9296,0 -1.8398,-0.1953 -2.7304,-0.586c-0.8828,-0.3828 -1.5547,-0.8867 -2.0157,-1.5117l1.3477,-1.7109c0.875,1.0391 1.9531,1.5586 3.2344,1.5586c0.9453,0 1.6914,-0.2578 2.2383,-0.7734c0.5468,-0.5079 0.8203,-1.2579 0.8203,-2.25l0,-0.8555c-0.8203,0.914 -1.9141,1.3711 -3.2813,1.3711c-1.4844,0 -2.6992,-0.5899 -3.6445,-1.7696c-0.9375,-1.1796 -1.4063,-2.8125 -1.4063,-4.8984zm2.836,0.2461c0,1.2734 0.2578,2.2773 0.7734,3.0117c0.5235,0.7266 1.2461,1.0899 2.168,1.0899c1.1484,0 2,-0.4922 2.5547,-1.4766l0,-5.5781c-0.5391,-0.961 -1.3828,-1.4414 -2.5313,-1.4414c-0.9375,0 -1.6679,0.3711 -2.1914,1.1132c-0.5156,0.7422 -0.7734,1.836 -0.7734,3.2813zm14.3086,6.1875l-2.8477,0l0,-12.6797l2.8477,0l0,12.6797zm-3.0235,-15.97266c0,-0.4375 0.1368,-0.80078 0.4102,-1.08984c0.2812,-0.28906 0.6797,-0.43359 1.1953,-0.43359c0.5156,0 0.9141,0.14453 1.1953,0.43359c0.2813,0.28906 0.4219,0.65234 0.4219,1.08984c0,0.42969 -0.1406,0.78907 -0.4219,1.07813c-0.2812,0.28125 -0.6797,0.42187 -1.1953,0.42187c-0.5156,0 -0.9141,-0.14062 -1.1953,-0.42187c-0.2734,-0.28906 -0.4102,-0.64844 -0.4102,-1.07813zm9.7032,0.21094l0,3.08202l2.2382,0l0,2.1094l-2.2382,0l0,7.0781c0,0.4844 0.0937,0.836 0.2812,1.0547c0.1953,0.2109 0.5391,0.3164 1.0313,0.3164c0.3281,0 0.6601,-0.0391 0.9961,-0.1172l0,2.2031c-0.6485,0.1797 -1.2735,0.2696 -1.875,0.2696c-2.1876,0 -3.2813,-1.2071 -3.2813,-3.6211l0,-7.1836l-2.0859,0l0,-2.1094l2.0859,0l0,-3.08202l2.8477,0zm7.2304,4.46482c0.9297,-1.0781 2.1055,-1.6172 3.5274,-1.6172c2.7031,0 4.0742,1.543 4.1132,4.6289l0,8.2852l-2.8476,0l0,-8.1797c0,-0.875 -0.1914,-1.4922 -0.5742,-1.8515c-0.375,-0.3672 -0.9297,-0.5508 -1.6641,-0.5508c-1.1406,0 -1.9922,0.5078 -2.5547,1.5234l0,9.0586l-2.8476,0l0,-18l2.8476,0l0,6.7031zm18.211,10.0547c-0.836,0.9844 -2.0235,1.4766 -3.5625,1.4766c-1.375,0 -2.418,-0.4024 -3.1289,-1.2071c-0.7032,-0.8046 -1.0547,-1.9687 -1.0547,-3.4921l0,-8.2149l2.8476,0l0,8.1797c0,1.6094 0.668,2.4141 2.0039,2.4141c1.3828,0 2.3164,-0.4961 2.8008,-1.4883l0,-9.1055l2.8472,0l0,12.6797l-2.6831,0l-0.0703,-1.2422zm16.7814,-4.9687c0,1.9687 -0.442,3.5351 -1.324,4.6992c-0.875,1.164 -2.082,1.7461 -3.622,1.7461c-1.484,0 -2.64,-0.5352 -3.468,-1.6055l-0.141,1.3711l-2.578,0l0,-18l2.848,0l0,6.5391c0.82,-0.9688 1.925,-1.4532 3.316,-1.4532c1.547,0 2.762,0.5743 3.645,1.7227c0.882,1.1484 1.324,2.7539 1.324,4.8164l0,0.1641zm-2.848,-0.2461c0,-1.375 -0.242,-2.4063 -0.726,-3.0938c-0.485,-0.6875 -1.188,-1.0312 -2.11,-1.0312c-1.234,0 -2.101,0.539 -2.601,1.6172l0,5.2265c0.507,1.1016 1.382,1.6524 2.625,1.6524c0.89,0 1.578,-0.3321 2.062,-0.9961c0.485,-0.6641 0.735,-1.668 0.75,-3.0118l0,-0.3632z"/>
  <path id="svg_2" fill="#A8A8B3" d="m126.727,26.2383l-10.747,0l0,-2.2383l10.747,0l0,2.2383zm7.089,-2.0039c-1.804,0 -3.269,-0.5664 -4.394,-1.6992c-1.117,-1.1407 -1.676,-2.6563 -1.676,-4.5469l0,-0.3516c0,-1.2656 0.242,-2.3945 0.727,-3.3867c0.492,-1 1.179,-1.7773 2.062,-2.332c0.883,-0.5547 1.867,-0.8321 2.953,-0.8321c1.727,0 3.059,0.5508 3.996,1.6524c0.946,1.1015 1.418,2.6601 1.418,4.6758l0,1.1484l-8.285,0c0.086,1.0469 0.434,1.875 1.043,2.4844c0.617,0.6093 1.391,0.914 2.32,0.914c1.305,0 2.368,-0.5273 3.188,-1.582l1.535,1.4649c-0.508,0.7578 -1.187,1.3476 -2.039,1.7695c-0.844,0.414 -1.793,0.6211 -2.848,0.6211zm-0.339,-10.8633c-0.782,0 -1.415,0.2734 -1.899,0.8203c-0.476,0.5469 -0.781,1.3086 -0.914,2.2852l5.426,0l0,-0.211c-0.063,-0.9531 -0.317,-1.6718 -0.762,-2.1562c-0.445,-0.4922 -1.062,-0.7383 -1.851,-0.7383zm12.199,2.1211l2.414,-4.1719l3.164,0l-3.879,6.2461l4.008,6.4336l-3.141,0l-2.531,-4.3359l-2.52,4.3359l-3.164,0l4.008,-6.4336l-3.867,-6.2461l3.141,0l2.367,4.1719zm18.621,2.2969c0,1.9609 -0.445,3.5273 -1.336,4.6992c-0.891,1.164 -2.086,1.7461 -3.586,1.7461c-1.391,0 -2.504,-0.4571 -3.34,-1.3711l0,6.0117l-2.847,0l0,-17.5547l2.624,0l0.118,1.2891c0.836,-1.0156 1.972,-1.5235 3.41,-1.5235c1.547,0 2.758,0.5782 3.633,1.7344c0.882,1.1485 1.324,2.7461 1.324,4.793l0,0.1758zm-2.836,-0.2461c0,-1.2657 -0.254,-2.2696 -0.762,-3.0118c-0.5,-0.7421 -1.219,-1.1132 -2.156,-1.1132c-1.164,0 -2,0.4804 -2.508,1.4414l0,5.625c0.516,0.9844 1.36,1.4765 2.531,1.4765c0.907,0 1.614,-0.3632 2.122,-1.0898c0.515,-0.7344 0.773,-1.8438 0.773,-3.3281zm8.285,6.457l-2.848,0l0,-18l2.848,0l0,18zm2.578,-6.457c0,-1.2422 0.246,-2.3594 0.738,-3.3516c0.493,-1 1.184,-1.7656 2.075,-2.2969c0.89,-0.539 1.914,-0.8086 3.07,-0.8086c1.711,0 3.098,0.5508 4.16,1.6524c1.071,1.1015 1.649,2.5625 1.735,4.3828l0.011,0.668c0,1.25 -0.242,2.3671 -0.726,3.3515c-0.477,0.9844 -1.164,1.7461 -2.063,2.2852c-0.89,0.539 -1.922,0.8086 -3.094,0.8086c-1.789,0 -3.222,-0.5938 -4.3,-1.7813c-1.071,-1.1953 -1.606,-2.7851 -1.606,-4.7695l0,-0.1406zm2.848,0.2461c0,1.3047 0.269,2.3281 0.808,3.0703c0.54,0.7344 1.29,1.1015 2.25,1.1015c0.961,0 1.708,-0.375 2.239,-1.125c0.539,-0.75 0.808,-1.8476 0.808,-3.2929c0,-1.2813 -0.277,-2.2969 -0.832,-3.0469c-0.547,-0.75 -1.293,-1.125 -2.238,-1.125c-0.93,0 -1.668,0.3711 -2.215,1.1133c-0.547,0.7344 -0.82,1.8359 -0.82,3.3047zm17.988,-3.8672c-0.375,-0.0625 -0.762,-0.0938 -1.16,-0.0938c-1.305,0 -2.184,0.5 -2.637,1.5l0,8.6719l-2.847,0l0,-12.6797l2.718,0l0.071,1.418c0.687,-1.1016 1.64,-1.6524 2.859,-1.6524c0.406,0 0.742,0.0547 1.008,0.1641l-0.012,2.6719zm7.149,10.3125c-1.805,0 -3.27,-0.5664 -4.395,-1.6992c-1.117,-1.1407 -1.676,-2.6563 -1.676,-4.5469l0,-0.3516c0,-1.2656 0.242,-2.3945 0.727,-3.3867c0.492,-1 1.18,-1.7773 2.062,-2.332c0.883,-0.5547 1.868,-0.8321 2.953,-0.8321c1.727,0 3.059,0.5508 3.997,1.6524c0.945,1.1015 1.418,2.6601 1.418,4.6758l0,1.1484l-8.286,0c0.086,1.0469 0.434,1.875 1.043,2.4844c0.618,0.6093 1.391,0.914 2.321,0.914c1.304,0 2.367,-0.5273 3.187,-1.582l1.535,1.4649c-0.507,0.7578 -1.187,1.3476 -2.039,1.7695c-0.844,0.414 -1.793,0.6211 -2.847,0.6211zm-0.34,-10.8633c-0.781,0 -1.414,0.2734 -1.899,0.8203c-0.476,0.5469 -0.781,1.3086 -0.914,2.2852l5.426,0l0,-0.211c-0.062,-0.9531 -0.316,-1.6718 -0.762,-2.1562c-0.445,-0.4922 -1.062,-0.7383 -1.851,-0.7383zm14.285,0.5508c-0.375,-0.0625 -0.762,-0.0938 -1.16,-0.0938c-1.305,0 -2.184,0.5 -2.637,1.5l0,8.6719l-2.848,0l0,-12.6797l2.719,0l0.07,1.418c0.688,-1.1016 1.641,-1.6524 2.86,-1.6524c0.406,0 0.742,0.0547 1.008,0.1641l-0.012,2.6719z"/>
  <path id="svg_3" fill="#A8A8B3" d="m0,16c0,-8.83998 7.16002,-16 16,-16c8.84,0 16,7.16002 15.9999,16c0,8.832 -7.16,15.9999 -15.9999,15.9999c-8.83998,0 -16,-7.1679 -16,-15.9999zm6.39997,9.6l13.10403,-6.096l6.096,-13.10403l-13.104,6.09603l-6.09603,13.104zm11.36003,-9.6c0,0.968 -0.7841,1.76 -1.76,1.76c-0.968,0 -1.7601,-0.792 -1.7601,-1.76c0,-0.9681 0.792,-1.7601 1.7601,-1.7601c0.976,0 1.76,0.792 1.76,1.7601z" clip-rule="evenodd" fill-rule="evenodd"/>
 </g>
</svg>